<svg width="215" height="25" viewBox="0 0 215 25" fill="none" xmlns="http://www.w3.org/2000/svg">
<path d="M71.6034 7.39179L74.9448 5.00031H63.7582V19.3258H74.9448V16.9343H66.9544V13.2767H73.7826V10.8852H66.9544V7.39179H71.6034Z" fill="#21A038"/>
<path d="M55.3066 10.5804H51.4324V7.39179H57.6311L60.9725 5.00031H48.2362V19.3258H54.8949C58.6238 19.3258 60.7788 17.6845 60.7788 14.8241C60.7788 12.081 58.8417 10.5804 55.3066 10.5804ZM54.7739 16.9343H51.4324V12.9719H54.7739C56.8078 12.9719 57.7521 13.6284 57.7521 14.9648C57.7521 16.3012 56.7352 16.9343 54.7739 16.9343Z" fill="#21A038"/>
<path d="M84.0015 5.00031H77.924V19.3258H81.1201V15.2696H84.0258C87.8999 15.2696 90.3213 13.3002 90.3213 10.135C90.3213 6.96976 87.8999 5.00031 84.0015 5.00031ZM83.9289 12.8781H81.0959V7.39179H83.9289C85.987 7.39179 87.1009 8.37652 87.1009 10.135C87.1009 11.8934 85.987 12.8781 83.9289 12.8781Z" fill="#21A038"/>
<path d="M42.7631 16.4185C41.9156 16.8639 40.9713 17.0984 40.0027 17.0984C37.1213 17.0984 35.039 15.1055 35.039 12.3623C35.039 9.61915 37.1213 7.62625 40.0027 7.62625C41.0439 7.6028 42.0609 7.93105 42.9084 8.5172L45.2086 6.87598L45.0634 6.7353C43.7316 5.58646 41.9398 5.00031 39.9059 5.00031C37.7025 5.00031 35.6927 5.72713 34.2399 7.0401C32.7871 8.39997 31.9638 10.2991 32.0123 12.2685C31.9881 14.2614 32.7871 16.184 34.2399 17.5908C35.7654 18.9741 37.7993 19.7478 39.8817 19.7009C42.182 19.7009 44.1917 18.9272 45.5476 17.5204L43.4895 16.0433L42.7631 16.4185Z" fill="#21A038"/>
<path d="M21.4944 4.68204C22.0619 5.41505 22.5348 6.21899 22.9368 7.07021L12.0125 15.1332L7.42529 12.2485V8.79632L11.9889 11.6574L21.4944 4.68204Z" fill="#21A038"/>
<path d="M2.76653 12.0125C2.76653 11.847 2.76653 11.7051 2.79018 11.5396L0.0236452 11.3977C0.0236452 11.5869 0 11.7997 0 11.9888C0 15.2992 1.3478 18.3021 3.52319 20.4775L5.48577 18.5149C3.80694 16.8597 2.76653 14.5662 2.76653 12.0125Z" fill="url(#paint0_linear_32_3)"/>
<path d="M11.9886 2.78995C12.1541 2.78995 12.2959 2.78995 12.4615 2.8136L12.6033 0.0471052C12.4142 0.0471052 12.2014 0.0234604 12.0122 0.0234604C8.70182 0.0234604 5.69883 1.37124 3.52344 3.5466L5.48602 5.50915C7.14121 3.83034 9.45848 2.78995 11.9886 2.78995Z" fill="url(#paint1_linear_32_3)"/>
<path d="M11.9889 21.2345C11.8234 21.2345 11.6815 21.2345 11.516 21.2109L11.3741 23.9774C11.5633 23.9774 11.7761 24.001 11.9653 24.001C15.2757 24.001 18.2787 22.6533 20.454 20.4779L18.4915 18.5153C16.8363 20.2178 14.5427 21.2345 11.9889 21.2345Z" fill="url(#paint2_linear_32_3)"/>
<path d="M17.1912 4.39801L19.5321 2.67191C17.4749 1.01674 14.8502 0 11.9891 0V2.76649C13.9281 2.79014 15.7251 3.38127 17.1912 4.39801Z" fill="url(#paint3_linear_32_3)"/>
<path d="M24.0013 12.0124C24.0013 11.2794 23.9303 10.57 23.8121 9.86065L21.2347 11.7759C21.2347 11.8469 21.2347 11.9414 21.2347 12.0124C21.2347 14.7316 20.0524 17.167 18.1844 18.8458L20.0525 20.903C22.4643 18.7276 24.0013 15.5355 24.0013 12.0124Z" fill="#21A038"/>
<path d="M11.9885 21.2345C9.26927 21.2345 6.83378 20.0523 5.15494 18.1843L3.09778 20.0523C5.29682 22.4877 8.46532 24.001 11.9885 24.001V21.2345Z" fill="url(#paint4_linear_32_3)"/>
<path d="M5.81681 5.17831L3.94881 3.12118C1.51332 5.32018 0 8.48864 0 12.0118H2.76653C2.76653 9.31623 3.94881 6.85712 5.81681 5.17831Z" fill="url(#paint5_linear_32_3)"/>
<path d="M105.452 4.78125V6.73438H98.8403V19H96.3989V4.78125H105.452ZM98.0981 10.2402H101.672C102.753 10.2402 103.678 10.4225 104.446 10.7871C105.214 11.1452 105.8 11.6497 106.204 12.3008C106.607 12.9518 106.809 13.7103 106.809 14.5762C106.809 15.2272 106.695 15.8229 106.467 16.3633C106.239 16.9036 105.904 17.3724 105.461 17.7695C105.019 18.1602 104.478 18.4629 103.84 18.6777C103.209 18.8926 102.486 19 101.672 19H96.3989V4.78125H98.8599V17.0566H101.672C102.291 17.0566 102.799 16.9427 103.196 16.7148C103.593 16.4805 103.886 16.1745 104.075 15.7969C104.27 15.4193 104.368 15.0059 104.368 14.5566C104.368 14.1204 104.27 13.7233 104.075 13.3652C103.886 13.0072 103.593 12.7207 103.196 12.5059C102.799 12.291 102.291 12.1836 101.672 12.1836H98.0981V10.2402ZM114.553 6.67578L110.305 19H107.737L113.088 4.78125H114.729L114.553 6.67578ZM118.108 19L113.85 6.67578L113.665 4.78125H115.315L120.686 19H118.108ZM117.903 13.7266V15.6699H110.168V13.7266H117.903ZM127.678 13.6973H123.977V11.7539H127.678C128.323 11.7539 128.844 11.6497 129.241 11.4414C129.638 11.2331 129.928 10.9466 130.11 10.582C130.299 10.2109 130.393 9.78776 130.393 9.3125C130.393 8.86328 130.299 8.44336 130.11 8.05273C129.928 7.6556 129.638 7.33659 129.241 7.0957C128.844 6.85482 128.323 6.73438 127.678 6.73438H124.729V19H122.278V4.78125H127.678C128.778 4.78125 129.713 4.97656 130.481 5.36719C131.256 5.7513 131.845 6.28516 132.249 6.96875C132.652 7.64583 132.854 8.42057 132.854 9.29297C132.854 10.2109 132.652 10.9987 132.249 11.6562C131.845 12.3138 131.256 12.8184 130.481 13.1699C129.713 13.5215 128.778 13.6973 127.678 13.6973ZM139.104 6.67578L134.856 19H132.288L137.639 4.78125H139.28L139.104 6.67578ZM142.659 19L138.401 6.67578L138.215 4.78125H139.866L145.237 19H142.659ZM142.454 13.7266V15.6699H134.719V13.7266H142.454ZM148.694 4.78125L151.711 9.9668L154.729 4.78125H157.551L153.254 11.8223L157.659 19H154.807L151.711 13.7168L148.616 19H145.754L150.168 11.8223L145.862 4.78125H148.694ZM170.549 11.5V12.2812C170.549 13.3555 170.409 14.319 170.129 15.1719C169.849 16.0247 169.449 16.7507 168.928 17.3496C168.414 17.9486 167.795 18.4076 167.073 18.7266C166.35 19.0391 165.549 19.1953 164.67 19.1953C163.798 19.1953 163 19.0391 162.278 18.7266C161.562 18.4076 160.94 17.9486 160.413 17.3496C159.885 16.7507 159.475 16.0247 159.182 15.1719C158.896 14.319 158.752 13.3555 158.752 12.2812V11.5C158.752 10.4258 158.896 9.46549 159.182 8.61914C159.469 7.76628 159.872 7.04036 160.393 6.44141C160.92 5.83594 161.542 5.37695 162.258 5.06445C162.981 4.74544 163.778 4.58594 164.651 4.58594C165.53 4.58594 166.331 4.74544 167.053 5.06445C167.776 5.37695 168.398 5.83594 168.918 6.44141C169.439 7.04036 169.84 7.76628 170.12 8.61914C170.406 9.46549 170.549 10.4258 170.549 11.5ZM168.098 12.2812V11.4805C168.098 10.6862 168.02 9.98633 167.864 9.38086C167.714 8.76888 167.489 8.25781 167.19 7.84766C166.897 7.43099 166.536 7.11849 166.106 6.91016C165.676 6.69531 165.191 6.58789 164.651 6.58789C164.111 6.58789 163.629 6.69531 163.206 6.91016C162.782 7.11849 162.421 7.43099 162.122 7.84766C161.829 8.25781 161.604 8.76888 161.448 9.38086C161.292 9.98633 161.213 10.6862 161.213 11.4805V12.2812C161.213 13.0755 161.292 13.7786 161.448 14.3906C161.604 15.0026 161.832 15.5202 162.131 15.9434C162.437 16.36 162.802 16.6758 163.225 16.8906C163.648 17.099 164.13 17.2031 164.67 17.2031C165.217 17.2031 165.702 17.099 166.125 16.8906C166.549 16.6758 166.907 16.36 167.2 15.9434C167.493 15.5202 167.714 15.0026 167.864 14.3906C168.02 13.7786 168.098 13.0755 168.098 12.2812ZM182.014 4.78125V6.73438H175.198V4.78125H182.014ZM183.889 4.78125V19H181.438V4.78125H183.889ZM174.709 4.78125H177.141L176.799 11.8418C176.754 12.877 176.666 13.7884 176.536 14.5762C176.405 15.3639 176.23 16.0378 176.008 16.5977C175.787 17.1576 175.507 17.6165 175.168 17.9746C174.83 18.3262 174.423 18.5866 173.948 18.7559C173.479 18.9186 172.929 19 172.297 19H171.672V17.0566L172.053 17.0273C172.398 17.0013 172.694 16.9199 172.942 16.7832C173.196 16.64 173.411 16.4316 173.586 16.1582C173.762 15.8783 173.909 15.5169 174.026 15.0742C174.143 14.6315 174.234 14.0911 174.299 13.4531C174.371 12.8151 174.423 12.0697 174.456 11.2168L174.709 4.78125ZM189.319 4.78125V19H186.877V4.78125H189.319ZM197.874 4.78125L192.092 12.8867H188.625L188.293 10.7578H190.735L194.875 4.78125H197.874ZM195.374 19L190.774 12.5156L192.356 10.6309L198.313 19H195.374ZM205.256 6.67578L201.008 19H198.44L203.792 4.78125H205.432L205.256 6.67578ZM208.811 19L204.553 6.67578L204.368 4.78125H206.018L211.389 19H208.811ZM208.606 13.7266V15.6699H200.872V13.7266H208.606Z" fill="black"/>
<defs>
<linearGradient id="paint0_linear_32_3" x1="4.09227" y1="20.1409" x2="1.06299" y2="11.3844" gradientUnits="userSpaceOnUse">
<stop offset="0.1444" stop-color="#F2E913"/>
<stop offset="0.3037" stop-color="#E7E518"/>
<stop offset="0.5823" stop-color="#CADB26"/>
<stop offset="0.891" stop-color="#A3CD39"/>
</linearGradient>
<linearGradient id="paint1_linear_32_3" x1="4.31204" y1="4.02932" x2="12.1144" y2="1.05595" gradientUnits="userSpaceOnUse">
<stop offset="0.0592" stop-color="#0FA8E0"/>
<stop offset="0.5385" stop-color="#0099F9"/>
<stop offset="0.9234" stop-color="#0291EB"/>
</linearGradient>
<linearGradient id="paint2_linear_32_3" x1="11.2117" y1="22.3107" x2="20.0348" y2="20.3166" gradientUnits="userSpaceOnUse">
<stop offset="0.1226" stop-color="#A3CD39"/>
<stop offset="0.2846" stop-color="#86C339"/>
<stop offset="0.8693" stop-color="#21A038"/>
</linearGradient>
<linearGradient id="paint3_linear_32_3" x1="11.4207" y1="0.933229" x2="18.9643" y2="3.26078" gradientUnits="userSpaceOnUse">
<stop offset="0.0566" stop-color="#0291EB"/>
<stop offset="0.79" stop-color="#0C8ACB"/>
</linearGradient>
<linearGradient id="paint4_linear_32_3" x1="3.80121" y1="19.7075" x2="12.0124" y2="22.7755" gradientUnits="userSpaceOnUse">
<stop offset="0.1324" stop-color="#F2E913"/>
<stop offset="0.2977" stop-color="#EBE716"/>
<stop offset="0.5306" stop-color="#D9E01F"/>
<stop offset="0.8023" stop-color="#BBD62D"/>
<stop offset="0.9829" stop-color="#A3CD39"/>
</linearGradient>
<linearGradient id="paint5_linear_32_3" x1="1.03769" y1="12.3459" x2="4.33365" y2="3.77179" gradientUnits="userSpaceOnUse">
<stop offset="0.0698" stop-color="#A3CD39"/>
<stop offset="0.2599" stop-color="#81C55F"/>
<stop offset="0.9216" stop-color="#0FA8E0"/>
</linearGradient>
</defs>
</svg>
